<?xml version="1.0" encoding="UTF-8"?><svg xmlns="http://www.w3.org/2000/svg" xmlns:xlink="http://www.w3.org/1999/xlink" width="224.87999pt" zoomAndPan="magnify" viewBox="0 0 224.87999 225" height="225pt" preserveAspectRatio="xMidYMid meet" version="1.2"><defs><clipPath xml:id="clip1" id="clip1"><path d="M 22.488281 22.546875 L 202.390625 22.546875 L 202.390625 202.453125 L 22.488281 202.453125 Z M 22.488281 22.546875 "/></clipPath><clipPath xml:id="clip2" id="clip2"><path d="M 45.128906 45.417969 L 179.308594 45.417969 L 179.308594 179.59375 L 45.128906 179.59375 Z M 45.128906 45.417969 "/></clipPath><clipPath xml:id="clip3" id="clip3"><path d="M 43.652344 43.714844 L 180.832031 43.714844 L 180.832031 180.890625 L 43.652344 180.890625 Z M 43.652344 43.714844 "/></clipPath><clipPath xml:id="clip4" id="clip4"><path d="M 23.625 23.683594 L 200.53125 23.683594 L 200.53125 200.589844 L 23.625 200.589844 Z M 23.625 23.683594 "/></clipPath></defs><g xml:id="surface1" id="surface1"><g clip-rule="nonzero" clip-path="url(#clip1)"><path style=" stroke:none;fill-rule:nonzero;fill:rgb(100%,100%,100%);fill-opacity:1;" d="M 76.230469 163.292969 C 48.183594 143.289062 41.664062 104.320312 61.675781 76.261719 C 81.6875 48.195312 120.65625 41.691406 148.710938 61.699219 C 176.765625 81.707031 183.285156 120.6875 163.277344 148.738281 C 143.261719 176.792969 104.289062 183.3125 76.230469 163.292969 Z M 180.195312 160.808594 C 181.148438 159.46875 182.046875 158.101562 182.910156 156.738281 L 191.183594 156.152344 C 192.992188 152.914062 194.566406 149.589844 195.9375 146.210938 L 191.1875 139.421875 C 192.253906 136.300781 193.132812 133.15625 193.8125 129.980469 L 201.355469 126.601562 C 201.929688 122.957031 202.28125 119.285156 202.40625 115.601562 L 195.644531 110.878906 C 195.582031 107.613281 195.308594 104.351562 194.859375 101.121094 L 200.789062 95.390625 C 200.085938 91.765625 199.1875 88.183594 198.046875 84.667969 L 190.058594 82.519531 C 188.886719 79.476562 187.53125 76.503906 186 73.609375 L 189.640625 66.160156 C 187.761719 63.03125 185.679688 59.988281 183.40625 57.074219 L 175.140625 57.796875 C 173.015625 55.359375 170.726562 53.03125 168.28125 50.828125 L 169.136719 42.566406 C 167.714844 41.417969 166.265625 40.289062 164.753906 39.210938 C 163.253906 38.144531 161.710938 37.136719 160.15625 36.160156 L 152.625 39.664062 C 149.746094 38.070312 146.792969 36.664062 143.800781 35.445312 L 141.792969 27.394531 C 138.289062 26.1875 134.753906 25.210938 131.171875 24.460938 L 125.316406 30.316406 C 122.082031 29.816406 118.820312 29.5 115.574219 29.378906 L 110.9375 22.53125 C 107.242188 22.597656 103.570312 22.90625 99.910156 23.425781 L 96.414062 30.902344 C 93.21875 31.535156 90.054688 32.335938 86.941406 33.335938 L 80.265625 28.476562 C 76.832031 29.792969 73.472656 31.3125 70.207031 33.042969 L 69.476562 41.28125 C 66.691406 42.957031 64.003906 44.816406 61.410156 46.828125 L 53.4375 44.554688 C 50.683594 46.945312 48.0625 49.515625 45.574219 52.28125 L 47.726562 60.296875 C 46.707031 61.566406 45.714844 62.851562 44.757812 64.191406 C 43.808594 65.53125 42.90625 66.890625 42.046875 68.261719 L 33.769531 68.835938 C 31.957031 72.089844 30.382812 75.410156 29.015625 78.78125 L 33.769531 85.589844 C 32.695312 88.691406 31.824219 91.851562 31.140625 95.03125 L 23.597656 98.390625 C 23.023438 102.046875 22.667969 105.71875 22.550781 109.394531 L 29.300781 114.125 C 29.371094 117.386719 29.644531 120.640625 30.09375 123.878906 L 24.160156 129.617188 C 24.867188 133.242188 25.765625 136.8125 26.902344 140.335938 L 34.894531 142.484375 C 36.058594 145.519531 37.417969 148.496094 38.949219 151.382812 L 35.3125 158.828125 C 37.191406 161.972656 39.269531 165.007812 41.550781 167.933594 L 49.816406 167.199219 C 51.945312 169.632812 54.226562 171.960938 56.671875 174.164062 L 55.816406 182.4375 C 57.242188 183.589844 58.683594 184.707031 60.195312 185.785156 C 61.703125 186.863281 63.246094 187.863281 64.789062 188.84375 L 72.324219 185.335938 C 75.214844 186.925781 78.152344 188.335938 81.144531 189.554688 L 83.152344 197.601562 C 86.648438 198.804688 90.199219 199.789062 93.777344 200.539062 L 99.640625 194.679688 C 102.875 195.183594 106.125 195.503906 109.375 195.617188 L 114.007812 202.464844 C 117.703125 202.398438 121.386719 202.089844 125.039062 201.570312 L 128.535156 194.097656 C 131.734375 193.464844 134.902344 192.667969 138.007812 191.671875 L 144.6875 196.523438 C 148.121094 195.214844 151.476562 193.683594 154.746094 191.949219 L 155.46875 183.714844 C 158.253906 182.042969 160.945312 180.191406 163.546875 178.171875 L 171.515625 180.445312 C 174.265625 178.054688 176.894531 175.484375 179.375 172.71875 L 177.230469 164.703125 C 178.246094 163.433594 179.238281 162.144531 180.195312 160.808594 "/></g><g clip-rule="nonzero" clip-path="url(#clip2)"><path style=" stroke:none;fill-rule:nonzero;fill:rgb(100%,100%,100%);fill-opacity:1;" d="M 112.21875 45.417969 C 75.226562 45.417969 45.128906 75.511719 45.128906 112.507812 C 45.128906 149.5 75.226562 179.59375 112.21875 179.59375 C 149.210938 179.59375 179.308594 149.5 179.308594 112.507812 C 179.308594 75.511719 149.210938 45.417969 112.21875 45.417969 Z M 112.21875 45.417969 "/></g><path style=" stroke:none;fill-rule:nonzero;fill:rgb(6.269836%,4.309082%,3.919983%);fill-opacity:1;" d="M 112.261719 80.578125 C 112.261719 80.578125 112.261719 80.335938 112.261719 79.875 C 112.277344 79.414062 112.285156 78.734375 112.375 77.875 C 112.460938 77.015625 112.589844 75.96875 112.835938 74.78125 C 113.078125 73.59375 113.4375 72.269531 113.941406 70.847656 C 114.199219 70.136719 114.492188 69.421875 114.835938 68.664062 C 114.921875 68.480469 114.996094 68.308594 115.09375 68.117188 C 115.1875 67.929688 115.285156 67.730469 115.386719 67.546875 C 115.585938 67.167969 115.796875 66.789062 116.027344 66.414062 C 116.480469 65.65625 117.011719 64.90625 117.613281 64.179688 C 118.210938 63.449219 118.902344 62.757812 119.675781 62.117188 C 119.863281 61.957031 120.066406 61.804688 120.265625 61.652344 L 120.34375 61.59375 L 120.363281 61.578125 L 120.445312 61.523438 L 120.589844 61.425781 L 120.875 61.226562 C 120.964844 61.164062 121.085938 61.09375 121.199219 61.023438 L 121.542969 60.816406 C 121.777344 60.675781 122 60.566406 122.230469 60.441406 C 123.148438 59.964844 124.128906 59.582031 125.164062 59.316406 C 126.195312 59.050781 127.28125 58.882812 128.390625 58.890625 C 129.5 58.898438 130.640625 59.066406 131.730469 59.449219 C 132.007812 59.539062 132.269531 59.667969 132.535156 59.777344 L 132.585938 59.800781 L 132.609375 59.808594 C 132.570312 59.789062 132.695312 59.851562 132.691406 59.847656 L 132.769531 59.894531 L 132.933594 59.980469 L 133.253906 60.152344 L 133.335938 60.195312 L 133.433594 60.253906 L 133.628906 60.378906 L 134.015625 60.632812 C 134.261719 60.804688 134.476562 60.988281 134.707031 61.164062 C 135.59375 61.90625 136.320312 62.855469 136.824219 63.890625 C 137.335938 64.929688 137.613281 66.058594 137.667969 67.167969 C 137.726562 68.28125 137.578125 69.367188 137.269531 70.367188 L 137.152344 70.742188 L 137.125 70.832031 L 137.09375 70.917969 L 137.078125 70.957031 L 137.015625 71.117188 L 136.882812 71.4375 L 136.707031 71.8125 C 136.648438 71.941406 136.585938 72.0625 136.523438 72.167969 L 136.339844 72.5 C 136.207031 72.714844 136.074219 72.925781 135.933594 73.125 C 135.363281 73.929688 134.738281 74.625 134.09375 75.238281 C 133.445312 75.851562 132.792969 76.390625 132.15625 76.882812 C 131.515625 77.371094 130.898438 77.832031 130.289062 78.257812 C 129.050781 79.117188 127.878906 79.808594 126.820312 80.386719 C 125.757812 80.960938 124.808594 81.40625 124.023438 81.757812 C 123.242188 82.117188 122.609375 82.355469 122.183594 82.527344 C 121.75 82.691406 121.523438 82.777344 121.523438 82.777344 C 121.523438 82.777344 122.328125 82.222656 123.734375 81.246094 C 124.429688 80.757812 125.265625 80.144531 126.199219 79.429688 C 127.128906 78.710938 128.164062 77.875 129.21875 76.921875 C 129.753906 76.4375 130.304688 75.921875 130.863281 75.386719 C 131.417969 74.847656 131.976562 74.292969 132.492188 73.699219 C 133.007812 73.101562 133.492188 72.476562 133.882812 71.804688 C 134.074219 71.472656 134.261719 71.109375 134.394531 70.785156 L 134.492188 70.542969 C 134.527344 70.453125 134.5625 70.335938 134.597656 70.230469 L 134.652344 70.070312 L 134.664062 70.027344 C 134.660156 70.039062 134.683594 69.972656 134.65625 70.050781 L 134.660156 70.03125 L 134.675781 69.960938 L 134.746094 69.675781 C 134.921875 68.914062 134.992188 68.132812 134.917969 67.367188 C 134.839844 66.601562 134.621094 65.859375 134.269531 65.179688 C 133.917969 64.503906 133.417969 63.902344 132.816406 63.398438 C 132.660156 63.285156 132.503906 63.148438 132.351562 63.046875 L 132.125 62.902344 L 132.015625 62.828125 L 131.957031 62.789062 L 131.878906 62.746094 L 131.554688 62.578125 L 131.390625 62.496094 L 131.3125 62.453125 C 131.292969 62.441406 131.40625 62.5 131.351562 62.472656 L 131.332031 62.464844 L 131.296875 62.449219 C 131.113281 62.378906 130.9375 62.292969 130.75 62.230469 C 129.25 61.691406 127.507812 61.710938 125.847656 62.089844 C 125.019531 62.285156 124.207031 62.5625 123.4375 62.914062 C 123.25 63.007812 123.046875 63.09375 122.875 63.1875 L 122.613281 63.328125 C 122.527344 63.375 122.445312 63.417969 122.339844 63.484375 L 122.046875 63.664062 L 121.898438 63.757812 L 121.859375 63.777344 C 121.828125 63.800781 121.882812 63.761719 121.871094 63.769531 L 121.855469 63.78125 L 121.789062 63.824219 C 121.617188 63.9375 121.445312 64.050781 121.277344 64.175781 C 119.941406 65.152344 118.808594 66.371094 117.867188 67.644531 C 117.625 67.960938 117.402344 68.285156 117.1875 68.609375 C 117.078125 68.769531 116.980469 68.929688 116.878906 69.089844 C 116.777344 69.257812 116.671875 69.425781 116.570312 69.59375 C 116.1875 70.230469 115.832031 70.894531 115.503906 71.523438 C 114.863281 72.792969 114.339844 74.003906 113.925781 75.097656 C 113.511719 76.195312 113.1875 77.171875 112.949219 77.984375 C 112.710938 78.800781 112.539062 79.449219 112.429688 79.894531 C 112.320312 80.339844 112.261719 80.578125 112.261719 80.578125 "/><path style=" stroke:none;fill-rule:nonzero;fill:rgb(6.269836%,4.309082%,3.919983%);fill-opacity:1;" d="M 112.261719 80.578125 C 112.261719 80.578125 112.203125 80.339844 112.09375 79.894531 C 111.988281 79.449219 111.8125 78.800781 111.574219 77.984375 C 111.339844 77.171875 111.011719 76.195312 110.597656 75.097656 C 110.183594 74.003906 109.660156 72.792969 109.019531 71.523438 C 108.695312 70.894531 108.339844 70.230469 107.953125 69.59375 C 107.851562 69.425781 107.75 69.257812 107.644531 69.089844 C 107.542969 68.929688 107.445312 68.769531 107.335938 68.609375 C 107.121094 68.285156 106.898438 67.960938 106.660156 67.644531 C 105.71875 66.371094 104.585938 65.152344 103.246094 64.175781 C 103.078125 64.050781 102.90625 63.9375 102.734375 63.824219 L 102.667969 63.78125 L 102.652344 63.769531 C 102.640625 63.761719 102.699219 63.800781 102.664062 63.777344 L 102.628906 63.757812 L 102.480469 63.664062 L 102.183594 63.484375 C 102.082031 63.417969 102 63.375 101.910156 63.328125 L 101.648438 63.1875 C 101.476562 63.09375 101.273438 63.007812 101.085938 62.914062 C 100.316406 62.5625 99.503906 62.285156 98.671875 62.089844 C 97.015625 61.710938 95.273438 61.691406 93.777344 62.230469 C 93.585938 62.292969 93.410156 62.378906 93.226562 62.449219 L 93.191406 62.464844 L 93.175781 62.472656 C 93.117188 62.5 93.230469 62.441406 93.210938 62.453125 L 93.132812 62.496094 L 92.96875 62.578125 L 92.644531 62.746094 L 92.566406 62.789062 L 92.507812 62.828125 L 92.398438 62.902344 L 92.171875 63.046875 C 92.019531 63.148438 91.863281 63.285156 91.707031 63.398438 C 91.105469 63.902344 90.605469 64.503906 90.253906 65.179688 C 89.902344 65.859375 89.6875 66.601562 89.609375 67.367188 C 89.53125 68.132812 89.605469 68.914062 89.777344 69.675781 L 89.847656 69.960938 L 89.863281 70.03125 L 89.867188 70.050781 C 89.839844 69.972656 89.863281 70.039062 89.859375 70.027344 L 89.875 70.070312 L 89.925781 70.230469 C 89.964844 70.335938 90 70.453125 90.035156 70.542969 L 90.128906 70.785156 C 90.265625 71.109375 90.449219 71.472656 90.640625 71.804688 C 91.03125 72.476562 91.519531 73.101562 92.03125 73.699219 C 92.546875 74.292969 93.105469 74.847656 93.660156 75.386719 C 94.21875 75.921875 94.769531 76.4375 95.304688 76.921875 C 96.359375 77.875 97.394531 78.710938 98.328125 79.429688 C 99.261719 80.144531 100.09375 80.757812 100.789062 81.246094 C 102.199219 82.222656 103.003906 82.777344 103.003906 82.777344 C 103.003906 82.777344 102.773438 82.691406 102.34375 82.527344 C 101.917969 82.355469 101.28125 82.117188 100.5 81.757812 C 99.714844 81.40625 98.765625 80.960938 97.707031 80.386719 C 96.644531 79.808594 95.476562 79.117188 94.234375 78.257812 C 93.625 77.832031 93.007812 77.371094 92.367188 76.882812 C 91.730469 76.390625 91.078125 75.851562 90.429688 75.238281 C 89.785156 74.625 89.160156 73.929688 88.59375 73.125 C 88.453125 72.925781 88.320312 72.714844 88.1875 72.5 L 88 72.167969 C 87.9375 72.0625 87.875 71.941406 87.816406 71.8125 L 87.640625 71.4375 L 87.511719 71.117188 L 87.445312 70.957031 L 87.429688 70.917969 L 87.398438 70.832031 L 87.371094 70.742188 L 87.253906 70.367188 C 86.945312 69.367188 86.796875 68.28125 86.855469 67.167969 C 86.910156 66.058594 87.1875 64.929688 87.699219 63.890625 C 88.203125 62.855469 88.929688 61.90625 89.820312 61.164062 C 90.050781 60.988281 90.261719 60.804688 90.507812 60.632812 L 90.898438 60.378906 L 91.09375 60.253906 L 91.191406 60.195312 L 91.269531 60.152344 L 91.59375 59.980469 L 91.753906 59.894531 L 91.835938 59.847656 C 91.828125 59.851562 91.957031 59.789062 91.914062 59.808594 L 91.9375 59.800781 L 91.988281 59.777344 C 92.253906 59.667969 92.519531 59.539062 92.792969 59.449219 C 93.882812 59.066406 95.023438 58.898438 96.132812 58.890625 C 97.246094 58.882812 98.328125 59.050781 99.359375 59.316406 C 100.394531 59.582031 101.375 59.964844 102.296875 60.441406 C 102.527344 60.566406 102.75 60.675781 102.980469 60.816406 L 103.324219 61.023438 C 103.4375 61.09375 103.5625 61.164062 103.648438 61.226562 L 103.9375 61.425781 L 104.078125 61.523438 L 104.113281 61.546875 L 104.164062 61.578125 L 104.179688 61.59375 L 104.257812 61.652344 C 104.457031 61.804688 104.660156 61.957031 104.851562 62.117188 C 105.621094 62.757812 106.3125 63.449219 106.910156 64.179688 C 107.511719 64.90625 108.042969 65.65625 108.496094 66.414062 C 108.726562 66.789062 108.9375 67.167969 109.136719 67.546875 C 109.238281 67.730469 109.335938 67.929688 109.429688 68.117188 C 109.527344 68.308594 109.605469 68.480469 109.691406 68.664062 C 110.03125 69.421875 110.324219 70.136719 110.582031 70.847656 C 111.085938 72.269531 111.445312 73.59375 111.6875 74.78125 C 111.933594 75.96875 112.066406 77.015625 112.148438 77.875 C 112.242188 78.734375 112.246094 79.414062 112.261719 79.875 C 112.261719 80.335938 112.261719 80.578125 112.261719 80.578125 "/><path style=" stroke:none;fill-rule:nonzero;fill:rgb(6.269836%,4.309082%,3.919983%);fill-opacity:1;" d="M 93.1875 108.265625 L 81.972656 110.054688 L 81.972656 89.714844 L 93.1875 87.242188 Z M 66.984375 92.585938 L 66.984375 113.503906 L 111.730469 105.816406 L 111.730469 81.960938 L 66.984375 92.585938 "/><path style=" stroke:none;fill-rule:nonzero;fill:rgb(6.269836%,4.309082%,3.919983%);fill-opacity:1;" d="M 93.1875 152.796875 L 81.972656 150.945312 L 81.972656 113.035156 L 93.1875 111.179688 Z M 69.871094 114.222656 L 69.871094 149.820312 L 111.730469 157.035156 L 111.730469 106.878906 L 69.871094 114.222656 "/><path style=" stroke:none;fill-rule:nonzero;fill:rgb(6.269836%,4.309082%,3.919983%);fill-opacity:1;" d="M 131.324219 87.242188 L 142.539062 89.714844 L 142.539062 110.054688 L 131.324219 108.265625 Z M 112.78125 81.960938 L 112.78125 105.816406 L 157.523438 113.503906 L 157.523438 92.585938 L 112.78125 81.960938 "/><path style=" stroke:none;fill-rule:nonzero;fill:rgb(6.269836%,4.309082%,3.919983%);fill-opacity:1;" d="M 131.324219 111.179688 L 142.539062 113.035156 L 142.539062 150.945312 L 131.324219 152.796875 Z M 112.78125 106.878906 L 112.78125 157.035156 L 154.636719 149.820312 L 154.636719 114.222656 L 112.78125 106.878906 "/><g clip-rule="nonzero" clip-path="url(#clip3)"><path style=" stroke:none;fill-rule:nonzero;fill:rgb(6.269836%,4.309082%,3.919983%);fill-opacity:1;" d="M 112.253906 48.308594 C 76.960938 48.308594 48.25 77.023438 48.25 112.316406 C 48.25 147.605469 76.960938 176.320312 112.253906 176.320312 C 147.546875 176.320312 176.261719 147.605469 176.261719 112.316406 C 176.261719 77.023438 147.546875 48.308594 112.253906 48.308594 Z M 112.253906 180.902344 C 74.433594 180.902344 43.667969 150.136719 43.667969 112.316406 C 43.667969 74.496094 74.433594 43.726562 112.253906 43.726562 C 150.074219 43.726562 180.84375 74.496094 180.84375 112.316406 C 180.84375 150.136719 150.074219 180.902344 112.253906 180.902344 "/></g><g clip-rule="nonzero" clip-path="url(#clip4)"><path style=" stroke:none;fill-rule:nonzero;fill:rgb(6.269836%,4.309082%,3.919983%);fill-opacity:1;" d="M 76.472656 162.085938 C 48.890625 142.410156 42.480469 104.089844 62.160156 76.503906 C 81.839844 48.902344 120.15625 42.507812 147.742188 62.183594 C 175.332031 81.855469 181.742188 120.1875 162.066406 147.773438 C 142.382812 175.355469 104.0625 181.765625 76.472656 162.085938 Z M 178.703125 159.640625 C 179.640625 158.324219 180.523438 156.980469 181.371094 155.636719 L 189.507812 155.0625 C 191.285156 151.875 192.835938 148.609375 194.179688 145.285156 L 189.511719 138.609375 C 190.558594 135.542969 191.425781 132.445312 192.09375 129.328125 L 199.511719 126.003906 C 200.074219 122.417969 200.421875 118.808594 200.542969 115.1875 L 193.894531 110.539062 C 193.832031 107.332031 193.5625 104.125 193.121094 100.945312 L 198.953125 95.3125 C 198.261719 91.746094 197.378906 88.226562 196.257812 84.769531 L 188.402344 82.65625 C 187.246094 79.664062 185.917969 76.738281 184.410156 73.894531 L 187.988281 66.566406 C 186.144531 63.492188 184.097656 60.5 181.859375 57.636719 L 173.730469 58.34375 C 171.640625 55.949219 169.390625 53.65625 166.988281 51.492188 L 167.828125 43.367188 C 166.429688 42.238281 165.003906 41.128906 163.519531 40.070312 C 162.042969 39.019531 160.527344 38.03125 158.996094 37.066406 L 151.589844 40.515625 C 148.761719 38.945312 145.859375 37.566406 142.914062 36.367188 L 140.941406 28.453125 C 137.496094 27.261719 134.019531 26.304688 130.496094 25.5625 L 124.738281 31.320312 C 121.558594 30.828125 118.351562 30.519531 115.160156 30.402344 L 110.597656 23.667969 C 106.964844 23.734375 103.351562 24.039062 99.753906 24.546875 L 96.320312 31.898438 C 93.175781 32.519531 90.0625 33.308594 87.003906 34.289062 L 80.4375 29.515625 C 77.0625 30.808594 73.757812 32.304688 70.546875 34.003906 L 69.832031 42.101562 C 67.09375 43.753906 64.445312 45.582031 61.898438 47.558594 L 54.054688 45.324219 C 51.351562 47.675781 48.769531 50.203125 46.324219 52.921875 L 48.441406 60.804688 C 47.441406 62.054688 46.460938 63.316406 45.523438 64.632812 C 44.585938 65.949219 43.703125 67.289062 42.855469 68.636719 L 34.714844 69.199219 C 32.933594 72.402344 31.386719 75.664062 30.042969 78.980469 L 34.714844 85.675781 C 33.660156 88.722656 32.804688 91.832031 32.132812 94.957031 L 24.714844 98.261719 C 24.148438 101.859375 23.800781 105.46875 23.683594 109.082031 L 30.320312 113.734375 C 30.390625 116.941406 30.664062 120.140625 31.101562 123.324219 L 25.265625 128.964844 C 25.964844 132.53125 26.847656 136.042969 27.964844 139.507812 L 35.824219 141.621094 C 36.96875 144.605469 38.304688 147.53125 39.8125 150.371094 L 36.234375 157.691406 C 38.082031 160.78125 40.125 163.769531 42.367188 166.644531 L 50.496094 165.921875 C 52.589844 168.316406 54.835938 170.605469 57.238281 172.773438 L 56.394531 180.90625 C 57.796875 182.039062 59.214844 183.140625 60.703125 184.203125 C 62.1875 185.257812 63.703125 186.246094 65.21875 187.207031 L 72.628906 183.757812 C 75.46875 185.320312 78.359375 186.707031 81.304688 187.90625 L 83.277344 195.820312 C 86.714844 197.003906 90.203125 197.96875 93.722656 198.707031 L 99.492188 192.949219 C 102.671875 193.441406 105.867188 193.757812 109.0625 193.867188 L 113.617188 200.601562 C 117.25 200.535156 120.875 200.234375 124.46875 199.71875 L 127.902344 192.375 C 131.046875 191.753906 134.164062 190.96875 137.21875 189.992188 L 143.785156 194.757812 C 147.164062 193.472656 150.464844 191.96875 153.675781 190.261719 L 154.386719 182.164062 C 157.125 180.519531 159.773438 178.699219 162.332031 176.710938 L 170.167969 178.949219 C 172.875 176.597656 175.457031 174.070312 177.898438 171.351562 L 175.785156 163.46875 C 176.785156 162.222656 177.761719 160.953125 178.703125 159.640625 "/></g></g></svg>